<?xml version="1.0" encoding="utf-8"?>
<!-- Generator: Adobe Illustrator 24.1.2, SVG Export Plug-In . SVG Version: 6.00 Build 0)  -->
<svg version="1.1" id="CISA_Seal" xmlns="http://www.w3.org/2000/svg" xmlns:xlink="http://www.w3.org/1999/xlink" x="0px" y="0px"
	 viewBox="0 0 439.2 439.2" style="enable-background:new 0 0 439.2 439.2;" xml:space="preserve">
<style type="text/css">
	.st0{fill:#FFFFFF;}
	.st1{fill:#005288;}
	.st2{fill:#C41230;}
	.st3{fill:#0078AE;}
	.st4{fill:#5E9732;}
</style>
<circle id="White_BG_1_" class="st0" cx="219.6" cy="219.6" r="216"/>
<path id="DB_Ring_100_x2C_45_x2C_0_x2C_37_1_" class="st1" d="M219.6,8.8C103.36,8.8,8.8,103.36,8.8,219.6
	c0,116.24,94.57,210.81,210.8,210.81s210.8-94.57,210.8-210.81C430.4,103.36,335.84,8.8,219.6,8.8z M219.6,417.91
	c-109.35,0-198.31-88.96-198.31-198.31S110.25,21.29,219.6,21.29s198.31,88.96,198.31,198.31S328.95,417.91,219.6,417.91z"/>
<path id="DB_Shapes_100_x2C_45_x2C_0_x2C_37_1_" class="st1" d="M231.47,297.99c6.68-1.28,13.81-2.16,20.85-2.37v1.64
	c-17.24,0.8-30.04,5.56-38.49,10.09c-1.16-1.21-2.29-2.44-3.4-3.7C216.3,301.52,223.59,299.49,231.47,297.99z M214.93,308.49
	c2.88,2.98,5.9,5.83,9.06,8.54v-5.68c0-3.03,2.09-5.5,4.67-5.5c2.58,0,4.67,2.47,4.67,5.5v13.08c1.45,1.05,2.92,2.07,4.4,3.07
	v-20.22c0-3.04,2.09-5.5,4.67-5.5c2.59,0,4.68,2.46,4.68,5.5v25.95c1.72,0.97,3.46,1.9,5.23,2.8v-37.28
	C235.7,299.54,223.24,304.12,214.93,308.49z M226.75,276.39l3.07,1.5l1.66-0.96l-4.22-2.44L226.75,276.39z M228.5,269.86l3.37-2.65
	l-2.2-1.73L228.5,269.86z M230.21,263.51l3.18,2.5l3.11-2.45l-3.13-11.92L230.21,263.51z M236.99,277.92v-1.99l-1.73,0.99
	L236.99,277.92z M231.88,278.89l5.11,2.48v-1.27l-3.61-2.08L231.88,278.89z M237.09,265.52l-2.15,1.7l3.3,2.6L237.09,265.52z
	 M233.38,275.83l5.45-3.15l-5.43-4.26l-5.44,4.28L233.38,275.83z M238.62,274.98l0.51,0.25l0.64,0.32l-0.29-1.06L238.62,274.98z
	 M235.08,112.32c-4.65,2.63,0,0-4.65,2.63l-2.62,3.58c-1.45-0.65-5.29-2.28-8.8-3.61c-3.54-1.35-8.46-2.87-8.46-2.87
	c9.13,0.1,11.26,0.13,11.67,0.13h0.07c0,0,0,0,0.01,0c0.01,0,0.01,0,0.01,0C222.74,112.2,225.02,112.22,235.08,112.32z
	 M363.16,219.6c0,79.28-64.27,143.55-143.56,143.55c-16.59,0-32.53-2.82-47.36-7.99c0,0,27.71-22.13,39.47-34.01
	c-8.19-7.72-15.55-16.36-21.95-25.82c-5.03-7.44-9.35-15.24-12.96-23.35l-68.83,68.74l2.38-27.98
	c-21.39-25.07-34.31-57.6-34.31-93.14c0-79.29,64.27-143.56,143.55-143.56C298.89,76.04,363.16,140.31,363.16,219.6z M147.68,103
	l31.98,17.21l-18.5,18.95l13.65-0.54l-11.25,18.65c0.25-0.01,0.5-0.01,0.74-0.01c8.45,0,16.26,2.73,22.63,7.35
	c14.74-2.26,35.75-5.09,55.61-6.32c-0.06-0.11-0.13-0.23-0.19-0.35c-0.29-0.58-0.59-1.15-0.88-1.74c-0.46-0.9-0.91-1.8-1.38-2.71
	c-0.6-1.18-1.19-2.36-1.79-3.55c-0.7-1.4-1.41-2.81-2.11-4.21c-0.79-1.59-1.58-3.17-2.36-4.75c0,0,3.42-4.72,10.11-6.77
	c6.16-1.89,12.97-0.02,16.96,5.29c1.29,1.72,2.22,3.65,2.22,5.65c0,0,10.55-15.84,7.99-24.95c-2.56-9.1-22.7-8.09-22.7-8.09h-6.71
	l-6.09-6.42c-1.64-1.73-3.85-2.7-6.16-2.7H147.68z M121.28,237.33l16.22-17.16v-17.12l-14.62,15.45L121.28,237.33z M170.94,214.37
	c7.77-2.79,12.98-10.21,12.98-18.47c0-0.25-0.02-0.49-0.03-0.73c-2.59-0.35-4.73-2.12-5.6-4.51h-12.56
	c-0.43,1.17-1.15,2.19-2.08,2.98c-1.21,1-2.76,1.61-4.44,1.61c-3,0-5.56-1.91-6.54-4.58h-3.44l-6.96,7.37v24.04l-21.63,22.87
	l-1.84,21.6l21.75-22.99c-0.48-0.94-0.74-1.99-0.74-3.11c0-3.84,3.12-6.96,6.96-6.96s6.95,3.12,6.95,6.96s-3.11,6.96-6.95,6.96
	c-0.98,0-1.92-0.21-2.77-0.58l-25.85,27.33l-1.84,21.59l24.25-25.63c-0.48-0.93-0.74-1.99-0.74-3.1c0-3.84,3.12-6.96,6.96-6.96
	s6.95,3.12,6.95,6.96s-3.11,6.96-6.95,6.96c-0.98,0-1.92-0.21-2.77-0.58l-28.35,30.11l-2.13,24.96l55.85-55.77v-57.77L170.94,214.37
	z M146.76,269.21c1.21,0,2.19-0.98,2.19-2.19c0-1.22-0.98-2.2-2.19-2.2c-1.22,0-2.2,0.98-2.2,2.2
	C144.56,268.23,145.54,269.21,146.76,269.21z M146.76,242.64c1.21,0,2.19-0.98,2.19-2.2c0-1.21-0.98-2.2-2.19-2.2
	c-1.22,0-2.2,0.99-2.2,2.2C144.56,241.66,145.54,242.64,146.76,242.64z M159.2,190.48c1.21,0,2.2-0.98,2.2-2.2
	c0-1.21-0.99-2.19-2.2-2.19c-1.22,0-2.2,0.98-2.2,2.19C157,189.5,157.98,190.48,159.2,190.48z M184.81,190.48
	c1.22,0,2.2-0.98,2.2-2.2c0-1.21-0.98-2.19-2.2-2.19c-1.21,0-2.19,0.98-2.19,2.19C182.62,189.5,183.6,190.48,184.81,190.48z
	 M186.3,255.79v-33.73c7.45-6.27,12.19-15.66,12.19-26.15c0-10.63-4.85-20.12-12.47-26.39c-0.01,0-0.01,0-0.01,0
	c-1.79-1.47-3.7-2.76-5.76-3.85c-4.76-2.51-10.19-3.94-15.94-3.94c-12.15,0-22.81,6.34-28.87,15.89l-0.01,0.02
	c-0.49,0.75-10.61,18.27-10.61,18.27l-1.28,15l23.64-25h5.48c0.98-2.67,3.53-4.57,6.54-4.57c1.69,0,3.23,0.6,4.44,1.61
	c0.93,0.77,1.66,1.8,2.08,2.97h12.56c0.97-2.67,3.53-4.57,6.53-4.57c3.84,0,6.96,3.11,6.96,6.95c0,2.45-1.27,4.6-3.18,5.84
	c0.05,0.6,0.09,1.18,0.09,1.79c0,9.69-5.78,18.46-14.56,22.31v49.73L186.3,255.79z M349.4,209.82v-37.36c0,0-39.09-10.1-87.58-10.1
	c-1.01,0-2.01,0.02-3.03,0.02c-21.76,0.2-48.4,3.5-67.11,6.27c6.96,6.99,11.28,16.63,11.28,27.25c0,10.71-4.41,20.86-12.19,28.16
	v1.21h151.18c-2.2,20.11-8.62,39.2-18.56,56.17v-4.08h-12.34v-6.28h-6.92v-7.24l-1.49-0.01l-2.66-0.01v-4.37
	c0-0.61-0.18-1.23-0.52-1.78c-0.63-0.98-1.68-1.55-2.81-1.55s-2.18,0.57-2.79,1.52c-0.36,0.58-0.54,1.19-0.54,1.8v4.38h-4.16v7.25
	h-5.02V247.4h-31.84v34.26l-9.61-4.69c-2.6-8.88-5.23-17.64-7.73-26.39c0.72-0.51,1.2-1.34,1.2-2.29c0-1.56-1.26-2.81-2.81-2.81
	c-1.55,0-2.81,1.25-2.81,2.81c0,0.95,0.48,1.79,1.2,2.29c-2.35,8.2-4.81,16.42-7.25,24.72l-0.17-0.08l-2.14-1.04v8.24h-3.69
	l-1.66-28.22l-0.08-1.4H205.4l-0.08,1.4l-1.66,28.22h-8.74c-3.64-6.09-6.81-12.46-9.5-19.05l-5.06,5.05
	c15.1,35.05,43.34,63.09,78.51,77.94C312.08,323.88,349.4,271.21,349.4,209.82z"/>
<g id="TEXT_100_x2C_45_x2C_0_x2C_37_1_">
	<g>
		<path class="st1" d="M47.41,228.96l-0.1-5.45c2.92-0.04,5.35,0.69,7.3,2.19c1.95,1.5,3.04,3.6,3.26,6.3
			c0.26,3.29-0.76,5.89-3.06,7.81c-2.3,1.92-5.6,3.05-9.88,3.4c-4.32,0.35-7.77-0.24-10.35-1.75c-2.58-1.51-4-3.96-4.27-7.32
			c-0.45-5.58,2.76-8.89,9.61-9.94l0.82,5.34c-3.96,0.46-5.84,1.86-5.66,4.2c0.1,1.23,0.82,2.15,2.15,2.77
			c1.34,0.62,3.85,0.78,7.53,0.49c3.29-0.26,5.53-0.78,6.71-1.54c1.18-0.77,1.72-1.81,1.61-3.15
			C52.91,230.16,51.02,229.05,47.41,228.96z"/>
		<path class="st1" d="M29.93,222.77l0.23-6.49l9.9-3.43l-9.63-4.39l0.2-5.75l15.21,7.99l11.33,0.4l-0.21,5.89l-11.33-0.4
			L29.93,222.77z"/>
		<path class="st1" d="M31.07,198.93l1.41-9.05c0.33-2.12,0.75-3.7,1.25-4.73c0.5-1.03,1.38-1.82,2.64-2.37
			c1.25-0.55,2.73-0.7,4.42-0.44c2.96,0.46,4.67,2.02,5.12,4.67c1.53-2.84,3.93-4,7.2-3.49c1.72,0.27,3.11,0.9,4.17,1.9
			s1.69,2.13,1.9,3.39c0.21,1.26,0.14,2.99-0.2,5.19l-1.41,9.05L31.07,198.93z M42.64,195.01l0.29-1.88
			c0.29-1.88,0.14-3.11-0.46-3.7c-0.6-0.59-1.33-0.95-2.2-1.09c-0.8-0.12-1.56,0.01-2.26,0.39c-0.7,0.39-1.18,1.38-1.43,2.97
			l-0.36,2.31L42.64,195.01z M53.9,196.76l0.44-2.85c0.42-2.68-0.53-4.2-2.84-4.56c-1.29-0.2-2.24-0.01-2.87,0.58
			c-0.63,0.58-1.05,1.55-1.26,2.9l-0.44,2.85L53.9,196.76z"/>
		<path class="st1" d="M35.5,174.2l4.48-15.68l4.42,1.26l-2.86,10.01l5.99,1.71l2.23-7.78l4.42,1.26l-2.22,7.78l6.35,1.82
			l2.86-10.01l4.61,1.32l-4.48,15.68L35.5,174.2z"/>
		<path class="st1" d="M41.81,153.5l3.29-7.76c0.64-1.51,1.2-2.63,1.68-3.38c0.48-0.74,1.2-1.4,2.15-1.96
			c0.96-0.56,2.06-0.85,3.31-0.87c1.25-0.02,2.54,0.25,3.85,0.81c3.09,1.31,4.77,3.39,5.04,6.23l12.72,0.03l-2.5,5.91l-11.17-0.84
			l-1.15,2.71l9.77,4.14l-2.3,5.43L41.81,153.5z M48.11,149.77l6.93,2.94l1.01-2.39c0.9-2.12,0.16-3.69-2.21-4.69
			c-0.82-0.35-1.56-0.48-2.22-0.38c-0.66,0.09-1.17,0.31-1.53,0.64c-0.36,0.34-0.72,0.91-1.06,1.72L48.11,149.77z"/>
		<path class="st1" d="M65.13,119.93l-0.84,5.15c-2.26-0.51-3.86,0.03-4.79,1.63c-0.43,0.75-0.57,1.46-0.4,2.15
			c0.17,0.68,0.54,1.19,1.11,1.52c0.66,0.38,1.33,0.43,2.02,0.14c0.69-0.29,1.83-1.07,3.42-2.34c1.42-1.17,2.66-2.03,3.7-2.57
			c1.04-0.54,2.18-0.8,3.42-0.78c1.24,0.02,2.48,0.38,3.71,1.1c2.16,1.26,3.5,3.03,4.03,5.33c0.52,2.3,0.05,4.69-1.4,7.2
			c-2.44,4.2-6.13,5.65-11.05,4.35l1.31-5.19c2.65,0.81,4.54,0.25,5.66-1.69c0.51-0.88,0.7-1.73,0.56-2.55
			c-0.14-0.82-0.58-1.44-1.33-1.88c-0.57-0.33-1.18-0.43-1.86-0.31c-0.67,0.12-1.66,0.73-2.96,1.83c-1.67,1.41-3.01,2.4-4.04,2.97
			c-1.02,0.57-2.18,0.86-3.46,0.87c-1.29,0.01-2.54-0.34-3.76-1.05c-2.08-1.21-3.4-2.88-3.95-4.99s-0.18-4.28,1.1-6.49
			C57.69,120.3,60.95,118.83,65.13,119.93z"/>
		<path class="st1" d="M63.77,111.61l9.79-13.04l3.68,2.76l-6.25,8.33l4.98,3.74l4.86-6.47l3.68,2.76l-4.86,6.47l5.28,3.96
			l6.25-8.33l3.83,2.88l-9.79,13.04L63.77,111.61z"/>
		<path class="st1" d="M98.4,96.92l4.01-3.7c1.96,2.15,3.03,4.46,3.21,6.92c0.18,2.46-0.67,4.66-2.55,6.62
			c-2.29,2.38-4.91,3.35-7.87,2.9c-2.96-0.45-6-2.16-9.1-5.13c-3.13-3-4.98-5.97-5.56-8.9c-0.58-2.93,0.3-5.62,2.64-8.06
			c3.87-4.04,8.48-3.84,13.81,0.59l-3.44,4.16c-2.97-2.65-5.27-3.13-6.89-1.44c-0.85,0.89-1.07,2.04-0.65,3.45
			c0.42,1.41,1.97,3.4,4.63,5.96c2.38,2.29,4.25,3.62,5.61,3.99c1.36,0.37,2.5,0.08,3.42-0.88
			C101.14,101.84,100.72,99.68,98.4,96.92z"/>
		<path class="st1" d="M94.45,77.08l4.61-3.67l9.55,11.98c1.35,1.69,2.36,2.81,3.05,3.35c0.68,0.54,1.41,0.79,2.17,0.75
			c0.76-0.04,1.49-0.35,2.2-0.91c0.77-0.61,1.23-1.29,1.37-2.03c0.15-0.74,0.03-1.46-0.37-2.17c-0.39-0.71-1.27-1.91-2.63-3.61
			l-9.55-11.98l3.86-3.07l9.41,11.8c1.88,2.36,3.14,4.22,3.79,5.59c0.65,1.37,0.75,2.92,0.3,4.63c-0.45,1.72-1.65,3.35-3.59,4.9
			c-1.82,1.45-3.5,2.29-5.03,2.52c-1.53,0.22-2.96-0.04-4.27-0.79c-1.32-0.75-3.09-2.52-5.31-5.3L94.45,77.08z"/>
		<path class="st1" d="M115.11,61.33l7.23-4.33c1.4-0.84,2.52-1.42,3.34-1.74c0.82-0.32,1.79-0.42,2.89-0.31
			c1.1,0.11,2.17,0.53,3.19,1.25c1.02,0.72,1.9,1.7,2.63,2.92c1.72,2.88,1.86,5.55,0.4,8.01l10.26,7.53l-5.5,3.3l-8.53-7.26
			l-2.53,1.51l5.45,9.1l-5.06,3.03L115.11,61.33z M122.39,62.03l3.87,6.45l2.22-1.33c1.98-1.18,2.3-2.88,0.98-5.1
			c-0.46-0.76-0.98-1.3-1.56-1.62c-0.59-0.31-1.12-0.44-1.62-0.38c-0.49,0.06-1.11,0.31-1.87,0.76L122.39,62.03z"/>
		<path class="st1" d="M135.91,49.58l5.33-2.52l11.48,24.24l-5.33,2.52L135.91,49.58z"/>
		<path class="st1" d="M144.5,45.43l15.63-5.94l1.79,4.7l-5.12,1.95l7.74,20.37l-5.51,2.09l-7.74-20.37l-5,1.9L144.5,45.43z"/>
		<path class="st1" d="M162.95,38.5l6.29-1.6l6.08,8.54l1.51-10.47l5.58-1.42l-3.39,16.84l2.8,10.99l-5.71,1.45l-2.8-10.99
			L162.95,38.5z"/>
		<path class="st1" d="M213.5,41.59l4.43,0.45c-0.48,3.21-1.48,6.16-3,8.84c1,0.9,1.94,1.31,2.83,1.24
			c0.12-0.01,0.42-0.04,0.92-0.11l0.34,4.55c-0.72,0.24-1.39,0.38-2.02,0.43c-1.86,0.14-3.65-0.57-5.38-2.14
			c-2.05,1.94-4.4,3.01-7.07,3.21c-2.95,0.22-5.17-0.4-6.65-1.88c-1.48-1.48-2.31-3.27-2.47-5.37c-0.26-3.43,1.57-6.16,5.49-8.18
			c-1.83-2.15-2.81-4.08-2.94-5.81c-0.12-1.61,0.43-3.05,1.65-4.33c1.22-1.28,2.87-2,4.95-2.16c2.1-0.16,3.82,0.33,5.14,1.46
			c1.33,1.13,2.06,2.6,2.2,4.4c0.2,2.69-1.18,4.95-4.14,6.78l4.08,4.64C212.61,46.17,213.15,44.16,213.5,41.59z M203.39,45.56
			c-1.73,1.23-2.53,2.73-2.4,4.48c0.08,1.12,0.49,2.02,1.21,2.69c0.72,0.67,1.69,0.96,2.9,0.86c1.42-0.11,2.63-0.72,3.62-1.85
			L203.39,45.56z M205.28,40.1c1.54-1.02,2.25-2.31,2.13-3.87c-0.05-0.63-0.26-1.15-0.64-1.56c-0.38-0.41-0.91-0.59-1.61-0.54
			c-0.67,0.05-1.17,0.29-1.5,0.7c-0.34,0.42-0.48,0.94-0.44,1.55C203.3,37.35,203.99,38.58,205.28,40.1z"/>
		<path class="st1" d="M231.24,30.5l5.88,0.45l-2.04,26.74l-5.88-0.45L231.24,30.5z"/>
		<path class="st1" d="M243.94,31.51l6.44,1.14l3.88,17.61l2.91-16.41l4.49,0.8l-4.68,26.41l-5.19-0.92l-4.66-20.54l-3.38,19.11
			l-4.49-0.79L243.94,31.51z"/>
		<path class="st1" d="M268.67,36.49l15.22,4.63l-1.34,4.4l-9.59-2.92l-2.04,6.71l7.39,2.25l-1.34,4.4l-7.39-2.25l-3.09,10.15
			l-5.64-1.72L268.67,36.49z"/>
		<path class="st1" d="M287.9,42.67l7.72,3.39c1.5,0.66,2.62,1.23,3.35,1.72c0.74,0.49,1.38,1.21,1.93,2.18
			c0.55,0.96,0.83,2.07,0.83,3.32c0,1.25-0.28,2.53-0.86,3.84c-1.35,3.07-3.45,4.72-6.3,4.96l-0.2,12.72l-5.87-2.58l0.98-11.16
			l-2.7-1.18l-4.26,9.71l-5.4-2.37L287.9,42.67z M291.55,49.02l-3.02,6.89l2.37,1.04c2.11,0.93,3.69,0.21,4.72-2.15
			c0.36-0.82,0.49-1.55,0.41-2.21c-0.08-0.66-0.29-1.17-0.62-1.54c-0.33-0.37-0.9-0.73-1.7-1.08L291.55,49.02z"/>
		<path class="st1" d="M317.06,57.13l5.04,3.14l-7.68,26.81l-5.12-3.19l1.79-5.41l-6.41-4l-4.05,4.01l-4.6-2.86L317.06,57.13z
			 M312.58,73.99l3.51-10.76l-8.02,7.95L312.58,73.99z"/>
		<path class="st1" d="M341.47,82.05l-4.96-1.61c0.85-2.16,0.55-3.82-0.88-4.98c-0.67-0.54-1.36-0.78-2.06-0.72
			c-0.7,0.07-1.26,0.35-1.67,0.86c-0.48,0.59-0.63,1.25-0.44,1.98c0.18,0.73,0.78,1.97,1.8,3.73c0.94,1.59,1.6,2.93,1.98,4.04
			c0.38,1.11,0.46,2.28,0.26,3.5c-0.2,1.22-0.75,2.39-1.65,3.5c-1.57,1.95-3.53,3.01-5.88,3.17c-2.35,0.17-4.65-0.66-6.9-2.47
			c-3.78-3.05-4.66-6.91-2.62-11.58l4.93,2.08c-1.2,2.5-0.93,4.45,0.81,5.85c0.79,0.64,1.61,0.95,2.43,0.94
			c0.83-0.01,1.51-0.36,2.06-1.03c0.41-0.51,0.6-1.11,0.58-1.79c-0.02-0.68-0.47-1.75-1.36-3.2c-1.14-1.86-1.92-3.34-2.33-4.44
			c-0.41-1.1-0.52-2.28-0.34-3.55c0.18-1.27,0.72-2.46,1.61-3.56c1.51-1.88,3.36-2.93,5.53-3.15c2.17-0.22,4.26,0.47,6.24,2.07
			C342.23,74.64,343.19,78.08,341.47,82.05z"/>
		<path class="st1" d="M348.31,80.4l11.76,11.88l-3.58,3.54l-3.86-3.9l-15.49,15.33l-4.15-4.19l15.49-15.33l-3.76-3.8L348.31,80.4z"
			/>
		<path class="st1" d="M362.93,95.5l5.23,6.61c1.02,1.28,1.74,2.31,2.16,3.09c0.42,0.78,0.65,1.72,0.68,2.83s-0.24,2.22-0.83,3.32
			c-0.59,1.11-1.44,2.1-2.56,2.99c-2.63,2.08-5.26,2.56-7.89,1.43l-6.14,11.15l-3.98-5.03l6.09-9.4l-1.83-2.31l-8.32,6.58
			l-3.66-4.62L362.93,95.5z M363.18,102.82l-5.9,4.67l1.61,2.03c1.43,1.81,3.16,1.91,5.18,0.31c0.7-0.55,1.17-1.14,1.4-1.76
			c0.24-0.62,0.29-1.17,0.17-1.65c-0.12-0.48-0.45-1.06-1-1.75L363.18,102.82z"/>
		<path class="st1" d="M377.67,114.85l3.02,5.06l-13.16,7.85c-1.86,1.11-3.1,1.96-3.73,2.57c-0.63,0.6-0.97,1.29-1.03,2.05
			c-0.06,0.76,0.14,1.53,0.61,2.3c0.5,0.84,1.11,1.39,1.82,1.64c0.71,0.25,1.44,0.22,2.2-0.07c0.75-0.3,2.06-1,3.93-2.12l13.16-7.85
			l2.53,4.24l-12.96,7.73c-2.59,1.54-4.61,2.54-6.05,3c-1.45,0.46-2.99,0.35-4.63-0.33c-1.64-0.68-3.1-2.08-4.37-4.22
			c-1.2-2-1.8-3.78-1.81-5.32c-0.02-1.55,0.44-2.92,1.36-4.13c0.92-1.2,2.91-2.72,5.97-4.54L377.67,114.85z"/>
		<path class="st1" d="M379.95,156.17l1.83,5.14c-2.75,0.96-5.29,1.04-7.62,0.24c-2.33-0.8-4.03-2.45-5.09-4.94
			c-1.3-3.04-1.16-5.83,0.42-8.38c1.57-2.55,4.34-4.67,8.29-6.36c3.99-1.7,7.44-2.25,10.37-1.63c2.93,0.62,5.05,2.48,6.38,5.59
			c2.2,5.14,0.21,9.3-5.95,12.48l-2.48-4.8c3.61-1.7,4.95-3.62,4.03-5.78c-0.48-1.13-1.46-1.78-2.92-1.95
			c-1.47-0.16-3.9,0.48-7.3,1.93c-3.04,1.3-4.99,2.49-5.87,3.6c-0.88,1.1-1.05,2.27-0.53,3.49
			C374.35,156.78,376.5,157.23,379.95,156.17z"/>
		<path class="st1" d="M398.61,157.08l4.8,16.02l-4.82,1.44l-1.58-5.25l-20.87,6.26l-1.69-5.65l20.87-6.26l-1.54-5.12L398.61,157.08
			z"/>
		<path class="st1" d="M404.46,177.34l1.03,5.8l-15.09,2.68c-2.13,0.38-3.59,0.74-4.4,1.08c-0.8,0.34-1.37,0.86-1.69,1.55
			c-0.32,0.69-0.41,1.48-0.25,2.37c0.17,0.97,0.55,1.69,1.12,2.18c0.58,0.48,1.27,0.72,2.08,0.71c0.81-0.01,2.28-0.21,4.43-0.58
			l15.09-2.67l0.86,4.86l-14.86,2.63c-2.97,0.53-5.21,0.75-6.73,0.66c-1.52-0.08-2.92-0.73-4.22-1.95c-1.29-1.21-2.16-3.05-2.59-5.5
			c-0.41-2.3-0.34-4.17,0.19-5.62c0.53-1.45,1.45-2.58,2.73-3.38s3.69-1.51,7.19-2.13L404.46,177.34z"/>
		<path class="st1" d="M408.44,203.01l0.36,8.42c0.07,1.64,0.05,2.89-0.07,3.77c-0.11,0.88-0.48,1.77-1.1,2.69
			c-0.62,0.92-1.5,1.65-2.62,2.21c-1.12,0.55-2.4,0.86-3.83,0.92c-3.35,0.14-5.76-1.01-7.23-3.47l-11.51,5.42l-0.27-6.41l10.45-4.03
			l-0.12-2.94l-10.6,0.45l-0.25-5.89L408.44,203.01z M404.35,209.09l-7.52,0.32l0.11,2.59c0.1,2.3,1.44,3.4,4.01,3.29
			c0.89-0.04,1.61-0.24,2.17-0.6c0.56-0.37,0.92-0.78,1.11-1.24c0.18-0.46,0.26-1.13,0.22-2.01L404.35,209.09z"/>
		<path class="st1" d="M408.94,227.33l-1.26,16.26l-4.58-0.36l0.8-10.38l-6.21-0.48l-0.62,8.07l-4.58-0.36l0.62-8.07l-6.58-0.51
			l-0.8,10.38l-4.78-0.37l1.26-16.26L408.94,227.33z"/>
	</g>
	<g>
		<path class="st1" d="M104.23,343.91l-4.73-2.19c1.1-2.04,1.01-3.72-0.28-5.04c-0.6-0.62-1.25-0.94-1.96-0.96
			c-0.7-0.02-1.29,0.2-1.76,0.65c-0.54,0.53-0.77,1.16-0.68,1.91c0.09,0.74,0.54,2.05,1.33,3.91c0.74,1.68,1.24,3.1,1.47,4.24
			c0.24,1.15,0.18,2.31-0.17,3.5c-0.35,1.19-1.04,2.28-2.06,3.27c-1.79,1.74-3.86,2.55-6.2,2.44c-2.35-0.12-4.53-1.21-6.54-3.28
			c-3.38-3.48-3.78-7.41-1.21-11.79l4.64,2.66c-1.49,2.33-1.46,4.29,0.1,5.89c0.71,0.73,1.48,1.14,2.3,1.22
			c0.82,0.09,1.54-0.17,2.16-0.77c0.47-0.46,0.73-1.02,0.79-1.7c0.06-0.68-0.26-1.79-0.96-3.33c-0.91-1.98-1.5-3.54-1.77-4.68
			c-0.28-1.14-0.25-2.32,0.09-3.56c0.34-1.24,1.01-2.35,2.02-3.33c1.72-1.68,3.68-2.49,5.86-2.46c2.18,0.04,4.16,0.97,5.94,2.8
			C105.87,336.65,106.41,340.18,104.23,343.91z"/>
		<path class="st1" d="M111.32,342.38l12.65,10.24l-2.89,3.57l-8.08-6.54l-3.91,4.83l6.28,5.08l-2.89,3.57l-6.28-5.08l-4.15,5.12
			l8.08,6.54l-3.01,3.72l-12.65-10.24L111.32,342.38z"/>
		<path class="st1" d="M128.18,375.43l4.43,3.15c-1.7,2.36-3.73,3.88-6.09,4.55c-2.36,0.68-4.69,0.3-6.99-1.13
			c-2.8-1.74-4.28-4.11-4.45-7.09c-0.17-2.99,0.88-6.3,3.14-9.94c2.29-3.67,4.8-6.09,7.55-7.26c2.75-1.17,5.55-0.86,8.41,0.92
			c4.74,2.95,5.49,7.49,2.26,13.61l-4.77-2.51c1.98-3.45,1.98-5.79-0.01-7.03c-1.04-0.65-2.21-0.62-3.5,0.08
			c-1.29,0.7-2.91,2.62-4.86,5.75c-1.74,2.8-2.65,4.89-2.74,6.3c-0.09,1.4,0.43,2.45,1.57,3.16
			C123.94,379.12,125.96,378.27,128.18,375.43z"/>
		<path class="st1" d="M144.61,365.28l5.37,2.4l-6.24,13.96c-0.88,1.97-1.41,3.38-1.57,4.24c-0.17,0.86-0.06,1.61,0.33,2.26
			c0.39,0.65,0.99,1.16,1.82,1.53c0.89,0.4,1.7,0.5,2.43,0.29c0.72-0.21,1.31-0.65,1.75-1.32c0.44-0.67,1.11-2,2-3.98l6.24-13.96
			l4.49,2.01l-6.15,13.75c-1.23,2.74-2.3,4.72-3.22,5.93c-0.92,1.21-2.24,2-3.97,2.39c-1.73,0.39-3.72,0.07-5.99-0.94
			c-2.12-0.95-3.64-2.05-4.54-3.31c-0.9-1.25-1.32-2.64-1.26-4.15c0.06-1.51,0.82-3.89,2.27-7.14L144.61,365.28z"/>
		<path class="st1" d="M165.67,374.3l8.08,2.36c1.57,0.46,2.75,0.88,3.54,1.27c0.79,0.39,1.52,1.02,2.19,1.91
			c0.67,0.88,1.08,1.94,1.25,3.18c0.16,1.24,0.05,2.54-0.35,3.91c-0.94,3.21-2.8,5.12-5.59,5.72l1.45,12.62l-6.15-1.79l-0.47-11.17
			l-2.82-0.82l-2.96,10.17l-5.65-1.65L165.67,374.3z M170.11,380.1l-2.1,7.21l2.48,0.72c2.21,0.64,3.67-0.27,4.4-2.74
			c0.25-0.85,0.29-1.6,0.12-2.24c-0.17-0.64-0.44-1.12-0.82-1.44c-0.38-0.32-0.98-0.6-1.83-0.85L170.11,380.1z"/>
		<path class="st1" d="M186.58,379.86l5.78,1.08l-4.9,26.31l-5.78-1.08L186.58,379.86z"/>
		<path class="st1" d="M194.2,381.42l16.6,1.73l-0.52,4.99l-5.44-0.57l-2.25,21.63l-5.85-0.61l2.26-21.63l-5.3-0.55L194.2,381.42z"
			/>
		<path class="st1" d="M211.19,383.26l6.48-0.06l3.87,9.72l3.95-9.79l5.75-0.05l-7.29,15.52l0.1,11.31l-5.88,0.06l-0.1-11.31
			L211.19,383.26z"/>
		<path class="st1" d="M244.39,381.35l5.84-1l12.05,25.09l-5.93,1.01l-2.25-5.23l-7.43,1.27l-0.36,5.67l-5.33,0.91L244.39,381.35z
			 M252.23,396.89l-4.51-10.35l-0.71,11.25L252.23,396.89z"/>
		<path class="st1" d="M271.92,387.77l8.88-2.74l4.22,13.64l-2.38,0.74l-1.63-2.7c-0.69,2.64-2.41,4.38-5.16,5.23
			c-2.91,0.9-5.57,0.47-7.98-1.3c-2.41-1.77-4.22-4.58-5.41-8.45c-1.3-4.21-1.49-7.8-0.57-10.77c0.92-2.97,3.02-4.97,6.31-5.98
			c5.23-1.62,9.07,0.4,11.52,6.05l-4.8,2.39c-1.38-3.24-3.11-4.54-5.19-3.9c-1.26,0.39-2.08,1.32-2.45,2.79
			c-0.37,1.47-0.03,3.93,1.04,7.38c0.95,3.06,1.98,5.1,3.1,6.12c1.12,1.02,2.4,1.31,3.82,0.87c2.29-0.71,2.91-2.75,1.88-6.14
			l-3.82,1.18L271.92,387.77z"/>
		<path class="st1" d="M281.06,371.41l14.8-6.76l1.91,4.17l-9.45,4.32l2.58,5.65l7.35-3.35l1.91,4.17l-7.35,3.36l2.74,5.99
			l9.45-4.32l1.99,4.35l-14.81,6.76L281.06,371.41z"/>
		<path class="st1" d="M297.97,363.5l5.55-3.44l14.6,10.51l-8.75-14.14l3.87-2.39l14.09,22.76l-4.47,2.77l-17.13-12.18l10.2,16.47
			l-3.87,2.39L297.97,363.5z"/>
		<path class="st1" d="M337.76,356.27l4.41-3.19c1.69,2.37,2.48,4.78,2.36,7.23c-0.11,2.45-1.22,4.54-3.31,6.26
			c-2.55,2.09-5.26,2.74-8.14,1.95c-2.89-0.79-5.69-2.85-8.41-6.16c-2.75-3.34-4.23-6.5-4.46-9.48c-0.23-2.98,0.96-5.53,3.57-7.68
			c4.31-3.54,8.85-2.81,13.62,2.21l-3.9,3.71c-2.63-2.98-4.86-3.73-6.66-2.24c-0.95,0.78-1.3,1.9-1.05,3.35
			c0.25,1.45,1.55,3.6,3.89,6.45c2.09,2.54,3.79,4.08,5.09,4.61c1.3,0.53,2.46,0.37,3.49-0.47
			C339.9,361.47,339.74,359.28,337.76,356.27z"/>
		<path class="st1" d="M330.8,340l4.48-4.68l9.66,4.02l-4.25-9.67l3.97-4.15l6.01,16.06l8.17,7.83l-4.07,4.25l-8.17-7.83L330.8,340z
			"/>
	</g>
</g>
<path id="R_Ring_0_x2C_100_x2C_79_x2C_20_1_" class="st2" d="M219.6,64.93c-85.42,0-154.67,69.24-154.67,154.67
	c0,40.21,15.35,76.83,40.5,104.33l0.44-5.15C81.83,291.31,68.7,256.47,68.7,219.6c0-40.31,15.7-78.21,44.2-106.71
	C141.4,84.4,179.3,68.7,219.6,68.7c40.3,0,78.2,15.7,106.7,44.19c28.5,28.5,44.19,66.4,44.19,106.71c0,40.3-15.69,78.2-44.19,106.7
	c-28.5,28.49-66.4,44.19-106.7,44.19c-36.68,0-71.38-13-98.8-36.82l-2.69,2.64c27.16,23.64,62.66,37.95,101.48,37.95
	c85.42,0,154.66-69.24,154.66-154.66C374.26,134.18,305.02,64.93,219.6,64.93z"/>
<g id="LB_Lines_100_x2C_16_x2C_0_x2C_27_1_">
	<g>
		<g>
			<path class="st3" d="M49.45,259.75l-3.79,1.17c5.39,22.71,15.13,43.78,28.29,62.22l3.3-2.18
				C64.3,302.83,54.72,282.1,49.45,259.75z M389.73,259.73c-5.25,22.36-14.84,43.08-27.8,61.22l3.32,2.19
				c13.16-18.45,22.9-39.51,28.29-62.22L389.73,259.73z"/>
		</g>
		<g>
			<path class="st3" d="M40.63,262.5l-3.81,1.19c5.66,23.55,15.79,45.39,29.43,64.57l3.3-2.19C56.12,307.2,46.17,285.69,40.63,262.5
				z M398.57,262.5c-5.54,23.19-15.49,44.7-28.92,63.57l3.3,2.19c13.63-19.18,23.77-41.02,29.43-64.57L398.57,262.5z"/>
		</g>
		<g>
			<path class="st3" d="M57.9,257.1l-3.79,1.19c5.13,21.91,14.5,42.21,27.22,59.98l3.3-2.19C72.12,298.61,62.9,278.65,57.9,257.1z
				 M381.3,257.1c-5,21.56-14.21,41.52-26.73,58.98l3.3,2.19c12.72-17.77,22.08-38.07,27.22-59.98L381.3,257.1z"/>
		</g>
	</g>
</g>
<path id="LB_Shapes_100_x2C_16_x2C_0_x2C_27_1_" class="st3" d="M238.47,276.57l13.84,6.75v10.81c-15.73,0.48-31.84,4.21-42.93,8.32
	c-5.02-5.8-9.55-12.01-13.56-18.54h9.24l1.74-29.62h8.57l1.74,29.62h6.59v-7.35l14.78,7.18V276.57z M228.67,307.33
	c-1.76,0-3.18,1.8-3.18,4.02v6.96c2.07,1.74,4.2,3.41,6.37,5.03v-11.99C231.85,309.13,230.42,307.33,228.67,307.33z M242.41,303.26
	c-1.76,0-3.18,1.8-3.18,4.02v21.19c2.08,1.36,4.21,2.67,6.38,3.92v-25.11C245.6,305.07,244.18,303.26,242.41,303.26z M253.81,336.76
	c1.67,0.83,3.35,1.63,5.07,2.39c0.32-0.14,0.64-0.29,0.96-0.44v-77.4c0-0.1,0.07-0.18,0.15-0.18h1.38c0.09,0,0.16,0.08,0.16,0.18
	v76.62c1.89-0.89,3.76-1.82,5.59-2.8v-77.7c0-0.1,0.07-0.18,0.16-0.18h1.38c0.08,0,0.15,0.08,0.15,0.18v76.81
	c1.89-1.03,3.76-2.09,5.59-3.2v-69.73c0-0.1,0.07-0.18,0.16-0.18h1.38c0.09,0,0.16,0.08,0.16,0.18v68.7
	c2.24-1.4,4.44-2.85,6.59-4.36v-76.77h-28.87V336.76z M302.64,265.33l-4.15-0.02v-5.85c0-0.36-0.12-0.7-0.3-1
	c-0.33-0.51-0.88-0.83-1.54-0.83s-1.21,0.33-1.54,0.83c-0.18,0.3-0.3,0.64-0.3,1v5.87h-4.16v7.25h-6.51v52.02
	c9.47-6.83,17.99-14.77,25.4-23.57v-28.44h-6.92V265.33z M311.05,299.23c3.96-4.86,7.58-9.97,10.85-15.3v-5.07h-10.85V299.23z
	 M295.82,198.59h-6.54l3.3-10.84L295.82,198.59z M295.82,198.59h-6.54l3.3-10.84L295.82,198.59z M342.76,177.74v32.08
	c0,3.27-0.11,6.54-0.34,9.77h-147.6c5.24-6.71,8.12-15.01,8.12-23.68c0-7.84-2.35-15.15-6.39-21.25
	c18.21-2.61,42.44-5.46,62.28-5.63c0.99-0.01,1.99-0.01,2.99-0.01C299,169.01,330.87,175.13,342.76,177.74z M218.57,195.25
	c0-6.7,1.88-10.06,5.66-10.06c3.29,0,4.99,2.17,5.1,6.54l7.58-0.48c-0.93-7.98-5.11-11.97-12.53-11.97c-4.28,0-7.67,1.49-10.14,4.46
	c-2.47,2.97-3.71,6.78-3.71,11.43c0,4.98,1.28,8.88,3.84,11.69c2.55,2.83,5.87,4.23,9.96,4.23c3.33,0,6.15-0.96,8.45-2.89
	c2.3-1.92,3.67-4.73,4.13-8.42l-7.01-0.44c-0.66,3.9-2.49,5.84-5.48,5.84c-1.84,0-3.28-0.69-4.3-2.07
	C219.08,201.76,218.57,199.13,218.57,195.25z M248.36,179.76h-7.22v30.87h7.22V179.76z M277.4,200.76c0-1.79-0.51-3.39-1.51-4.83
	c-1-1.44-2.23-2.49-3.69-3.13c-1.47-0.64-3.77-1.29-6.91-1.92c-1.88-0.38-3.09-0.82-3.62-1.34c-0.54-0.52-0.8-1.13-0.8-1.87
	c0-1.85,1.43-2.79,4.28-2.79c2.68,0,4.42,1.23,5.26,3.67l6.15-2.06c-1.73-4.84-5.62-7.26-11.68-7.26c-3.41,0-6.12,0.94-8.12,2.83
	c-1.99,1.88-2.99,4.21-2.99,6.94c0,2.72,0.83,4.78,2.5,6.19c1.68,1.41,4.47,2.52,8.4,3.34c2.11,0.44,3.53,0.9,4.27,1.4
	c0.73,0.5,1.1,1.2,1.1,2.1c0,0.89-0.41,1.66-1.21,2.29c-0.81,0.64-2.05,0.96-3.71,0.96c-3.42,0-5.51-1.44-6.27-4.31l-6.69,1.52
	c0.7,2.83,2.17,4.97,4.39,6.41c2.22,1.44,4.91,2.16,8.07,2.16c4.22,0,7.4-1.02,9.55-3.05C276.32,205.95,277.4,203.54,277.4,200.76z
	 M307.2,210.64l-9.66-30.87h-8.38l-9.89,30.87h6.34l1.93-6.36h9.98l1.9,6.36H307.2z M292.58,187.75l3.23,10.84h-6.54L292.58,187.75z
	 M295.82,198.59h-6.54l3.3-10.84L295.82,198.59z M295.82,198.59h-6.54l3.3-10.84L295.82,198.59z"/>
<path id="G_Lines_56_x2C_0_x2C_100_x2C_27_1_" class="st4" d="M217.12,258.62l-0.15-2.5c1.87,3.9,5.1,7.03,9.07,8.78
	c-0.11,0.36-0.21,0.71-0.31,1.06C222.18,264.43,219.19,261.85,217.12,258.62z M252.5,247.4c-0.48-10.17-8.89-18.31-19.18-18.31
	c-10.6,0-19.22,8.62-19.22,19.22c0,1.55,0.19,3.05,0.54,4.49h1.14c-0.37-1.44-0.58-2.94-0.58-4.49c0-9.99,8.13-18.13,18.13-18.13
	c9.99,0,18.13,8.13,18.13,18.13c0,7.37-4.43,13.71-10.76,16.54c0.11,0.36,0.21,0.71,0.32,1.06c5.91-2.59,10.28-8.07,11.31-14.64
	v-3.88H252.5z M248.75,248.31c0-8.51-6.92-15.43-15.43-15.43s-15.43,6.92-15.43,15.43c0,6.18,3.66,11.51,8.92,13.97
	c0.11-0.37,0.22-0.74,0.33-1.11c-4.78-2.31-8.1-7.2-8.1-12.86c0-7.88,6.41-14.29,14.28-14.29s14.29,6.41,14.29,14.29
	c0,5.63-3.28,10.49-8.01,12.81c0.11,0.37,0.22,0.74,0.33,1.11C245.14,259.76,248.75,254.46,248.75,248.31z M245.72,248.31
	c0-6.83-5.56-12.39-12.39-12.39s-12.39,5.56-12.39,12.39c0,4.8,2.75,8.96,6.75,11.02c0.11-0.39,0.23-0.77,0.34-1.16
	c-3.51-1.89-5.9-5.6-5.9-9.86c0-6.18,5.02-11.2,11.2-11.2c6.18,0,11.2,5.03,11.2,11.2c0,4.22-2.35,7.91-5.81,9.81
	c0.11,0.39,0.23,0.78,0.34,1.16C243.01,257.22,245.72,253.08,245.72,248.31z M243.29,248.31c0-5.49-4.47-9.96-9.96-9.96
	c-5.49,0-9.96,4.47-9.96,9.96c0,3.69,2.02,6.91,5.02,8.64c0.12-0.41,0.24-0.82,0.36-1.23c-2.48-1.54-4.14-4.28-4.14-7.41
	c0-4.81,3.91-8.73,8.73-8.73s8.73,3.91,8.73,8.73c0,3.09-1.62,5.81-4.05,7.36c0.12,0.41,0.24,0.82,0.36,1.23
	C241.3,255.17,243.29,251.97,243.29,248.31z M239.3,248.31c0-3.43-2.68-6.22-5.98-6.22s-5.97,2.79-5.97,6.22
	c0,1.92,0.84,3.63,2.15,4.77c0.14-0.47,0.27-0.94,0.41-1.4c-0.8-0.88-1.29-2.06-1.29-3.37c0-2.71,2.11-4.92,4.71-4.92
	s4.71,2.21,4.71,4.92c0,1.26-0.47,2.41-1.22,3.28c0.14,0.47,0.27,0.95,0.41,1.42C238.5,251.87,239.3,250.19,239.3,248.31z
	 M241.35,248.31c0-4.42-3.6-8.02-8.02-8.02s-8.02,3.6-8.02,8.02c0,2.8,1.45,5.27,3.64,6.71c0.13-0.44,0.25-0.87,0.38-1.3
	c-1.65-1.23-2.73-3.19-2.73-5.4c0-3.72,3.02-6.74,6.74-6.74s6.74,3.02,6.74,6.74c0,2.18-1.04,4.11-2.65,5.34
	c0.13,0.44,0.25,0.87,0.38,1.31C239.94,253.53,241.35,251.08,241.35,248.31z M302.19,225.27h-0.86c2.46,7.24,3.81,14.98,3.81,23.04
	c0,5.33-0.6,10.53-1.71,15.53l0.7,0v0.61c1.19-5.2,1.83-10.6,1.83-16.15C305.96,240.26,304.62,232.52,302.19,225.27z M321.09,225.27
	h-0.8c1.95,7.36,3,15.08,3,23.04c0,10.16-1.7,19.94-4.82,29.05h0.82c3.09-9.13,4.77-18.9,4.77-29.05
	C324.05,240.36,323.02,232.63,321.09,225.27z M286.71,225.27h-0.95c3.11,7.06,4.85,14.85,4.85,23.04c0,8.09-1.7,15.79-4.73,22.78
	h0.95c0.92-2.14,1.69-4.35,2.35-6.62v-0.63h0.18c1.37-4.95,2.12-10.15,2.12-15.53C291.48,240.13,289.78,232.34,286.71,225.27z
	 M189.11,259.7l-0.75,0.74c2.31,8.55,6.99,16.13,13.31,21.98h1.36C196.34,276.49,191.41,268.62,189.11,259.7z M272.72,225.27
	c3.83,6.52,6.08,14.07,6.24,22.13h0.91c-0.16-8.04-2.35-15.57-6.1-22.13H272.72z M193.93,225.27h-1.05
	c-0.77,1.35-1.48,2.74-2.12,4.17v2.37C191.65,229.54,192.71,227.36,193.93,225.27z M239.91,225.27h-13.16
	c-10.02,2.87-17.39,12.11-17.39,23.04c0,1.54,0.16,3.03,0.44,4.49h1.07c-0.29-1.45-0.46-2.95-0.46-4.49
	c0-12.64,10.28-22.92,22.92-22.92c12.33,0,22.41,9.79,22.89,22h1.05C256.87,236.87,249.65,228.06,239.91,225.27z M224.38,270.54
	c0.1-0.34,0.2-0.68,0.3-1.01c-2.69-1.1-5.12-2.7-7.19-4.68l0.09,1.49C219.58,268.09,221.87,269.53,224.38,270.54z M242.07,269.49
	c0.1,0.34,0.2,0.67,0.3,1.01c3.96-1.62,7.38-4.27,9.95-7.61v-1.78C249.81,264.82,246.25,267.76,242.07,269.49z M243.76,275.25
	c0.09,0.32,0.19,0.65,0.28,0.97c3.03-1.17,5.81-2.83,8.28-4.86v-1.32C249.81,272.24,246.92,274.02,243.76,275.25z M218.02,273.96
	c1.33,0.8,2.73,1.5,4.19,2.08v-1.09c-1.49-0.62-2.91-1.36-4.26-2.22L218.02,273.96z M203.43,248.31c0,3.43,0.6,6.71,1.66,9.78
	l0.17-2.92c-0.54-2.2-0.83-4.49-0.83-6.85c0-9.4,4.51-17.76,11.48-23.04h-1.62C207.66,230.76,203.43,239.05,203.43,248.31z
	 M262.2,247.4h1c-0.27-8.89-4.43-16.82-10.84-22.13h-1.62C257.48,230.38,261.91,238.37,262.2,247.4z M261.42,225.27
	c4.98,6.06,8.03,13.74,8.23,22.13h0.96c-0.2-8.34-3.15-16-7.97-22.13H261.42z M196.98,248.31c0-8.74,3.1-16.77,8.26-23.04h-1.22
	c-5,6.35-8,14.35-8,23.04c0,8.85,3.1,16.99,8.27,23.39l0.08-1.44C199.74,264.16,196.98,256.56,196.98,248.31z M218.52,282.43h2.26
	c-0.78-0.29-1.55-0.61-2.31-0.95L218.52,282.43z M250.07,280.57l1.07,0.52c0.4-0.22,0.79-0.44,1.18-0.67v-1.12
	C251.59,279.74,250.84,280.17,250.07,280.57z"/>
</svg>
