<?xml version="1.0" encoding="utf-8"?>
<svg viewBox="1.716 0.88 332.238 52.203" width="728.385px" height="114.448px" xmlns="http://www.w3.org/2000/svg">
  <path id="Title" fill="#164A91" d="M16.546,23.034l0.061-16.6h-0.091l-4.333,16.6H9.314l-4.241-16.6H4.981l0.061,16.6H1.716V1.43 h4.913l4.15,15.806h0.122L14.959,1.43h5.157v21.604H16.546z M41.628,12.201c0,1.708-0.178,3.26-0.534,4.653 c-0.356,1.394-0.87,2.589-1.541,3.585c-0.671,0.997-1.49,1.77-2.456,2.319c-0.967,0.549-2.05,0.824-3.25,0.824 c-1.221,0-2.309-0.275-3.265-0.824c-0.957-0.549-1.77-1.322-2.441-2.319c-0.671-0.997-1.186-2.192-1.541-3.585 c-0.356-1.393-0.534-2.945-0.534-4.653c0-1.709,0.173-3.255,0.519-4.638c0.346-1.383,0.854-2.573,1.525-3.57 c0.671-0.997,1.49-1.765,2.457-2.304c0.966-0.539,2.06-0.809,3.28-0.809c1.2,0,2.283,0.27,3.25,0.809 c0.966,0.539,1.785,1.307,2.456,2.304c0.671,0.997,1.185,2.187,1.541,3.57S41.628,10.492,41.628,12.201z M37.845,12.201 c0-1.099-0.087-2.131-0.259-3.097c-0.173-0.966-0.427-1.8-0.763-2.502c-0.335-0.702-0.753-1.256-1.251-1.663 c-0.499-0.407-1.073-0.61-1.724-0.61c-0.671,0-1.256,0.204-1.754,0.61c-0.499,0.407-0.916,0.961-1.251,1.663 c-0.335,0.702-0.585,1.536-0.748,2.502c-0.163,0.966-0.244,1.999-0.244,3.097s0.081,2.131,0.244,3.097 c0.163,0.966,0.412,1.806,0.748,2.518c0.336,0.712,0.752,1.271,1.251,1.678c0.498,0.407,1.083,0.61,1.754,0.61 s1.256-0.203,1.754-0.61c0.499-0.407,0.916-0.966,1.251-1.678c0.335-0.712,0.584-1.551,0.748-2.518 C37.763,14.333,37.845,13.3,37.845,12.201z M57.038,23.034L50.904,7.776h-0.091l0.061,15.257h-3.295V1.43h4.18l6.072,15.349h0.092 L57.892,1.43h3.174v21.604H57.038z M73.394,4.542v18.492h-3.601V4.542h-4.058V1.43h11.717v3.112H73.394z M92.221,23.034v-9.582 h-6.469v9.582h-3.631V1.43h3.631v8.757h6.469V1.43h3.632v21.604H92.221z M102.778,23.034V1.43h3.692v18.217h5.95v3.387H102.778z M122.856,14.764v8.27h-3.601v-8.27l-5.4-13.334h3.967l3.234,9.643l0.091-0.061l3.296-9.582h3.875L122.856,14.764z M149.099,5.61 c-0.793-0.956-1.79-1.434-2.99-1.434c-0.346,0-0.682,0.056-1.007,0.168s-0.621,0.29-0.885,0.534 c-0.265,0.244-0.473,0.56-0.626,0.946c-0.152,0.387-0.229,0.844-0.229,1.373c0,0.916,0.274,1.623,0.824,2.121 c0.549,0.499,1.271,0.972,2.166,1.419c0.529,0.265,1.068,0.57,1.617,0.916c0.55,0.346,1.048,0.763,1.495,1.251 s0.813,1.068,1.099,1.739s0.428,1.465,0.428,2.38c0,1.058-0.168,1.994-0.504,2.807c-0.336,0.814-0.783,1.5-1.343,2.06 c-0.56,0.56-1.216,0.982-1.968,1.267c-0.753,0.285-1.547,0.427-2.38,0.427c-1.201,0-2.31-0.234-3.326-0.702 c-1.018-0.468-1.831-1.058-2.441-1.77l1.983-2.686c0.468,0.57,1.032,1.018,1.693,1.343c0.661,0.326,1.338,0.488,2.029,0.488 c0.773,0,1.414-0.264,1.923-0.793c0.508-0.529,0.763-1.271,0.763-2.228c0-0.936-0.306-1.678-0.916-2.228s-1.383-1.058-2.318-1.525 c-0.591-0.285-1.145-0.6-1.663-0.946c-0.52-0.346-0.977-0.757-1.373-1.236c-0.397-0.478-0.713-1.038-0.946-1.678 c-0.234-0.641-0.351-1.408-0.351-2.304c0-1.119,0.178-2.08,0.533-2.884c0.356-0.803,0.824-1.469,1.404-1.999 c0.579-0.529,1.235-0.92,1.968-1.175s1.475-0.381,2.228-0.381c1.099,0,2.08,0.178,2.945,0.534c0.864,0.356,1.591,0.88,2.182,1.572 L149.099,5.61z M169.727,18.579c-0.244,0.997-0.641,1.867-1.19,2.609c-0.549,0.743-1.256,1.328-2.12,1.755 c-0.865,0.427-1.918,0.641-3.158,0.641c-1.241,0-2.289-0.214-3.144-0.641c-0.854-0.427-1.552-1.012-2.09-1.755 c-0.539-0.742-0.926-1.612-1.16-2.609c-0.233-0.997-0.351-2.064-0.351-3.204V1.43h3.662v13.609c0,0.671,0.046,1.317,0.137,1.938 c0.092,0.621,0.255,1.165,0.488,1.632c0.233,0.468,0.555,0.839,0.961,1.114c0.407,0.275,0.926,0.412,1.557,0.412 s1.149-0.137,1.557-0.412c0.406-0.274,0.727-0.646,0.961-1.114c0.233-0.467,0.396-1.012,0.488-1.632 c0.092-0.62,0.138-1.266,0.138-1.938V1.43h3.631v13.945C170.093,16.514,169.971,17.582,169.727,18.579z M189.164,16.992 c0,1.14-0.188,2.09-0.564,2.853c-0.377,0.763-0.854,1.384-1.435,1.862s-1.231,0.819-1.953,1.022 c-0.722,0.204-1.429,0.305-2.12,0.305h-6.408V1.43h5.736c0.631,0,1.302,0.076,2.014,0.229c0.712,0.153,1.363,0.427,1.953,0.824 c0.59,0.396,1.078,0.946,1.465,1.647c0.387,0.702,0.58,1.613,0.58,2.731c0,1.343-0.285,2.401-0.854,3.174 c-0.57,0.773-1.231,1.312-1.983,1.617v0.061c0.406,0.102,0.818,0.274,1.235,0.519s0.799,0.585,1.145,1.022s0.631,0.966,0.854,1.586 C189.052,15.461,189.164,16.178,189.164,16.992z M185.136,7.441c0-0.549-0.086-1.012-0.258-1.389 c-0.172-0.376-0.395-0.681-0.667-0.915c-0.273-0.234-0.592-0.402-0.955-0.504c-0.364-0.102-0.738-0.152-1.123-0.152h-2.001v6.011 h2.062c0.363,0,0.723-0.056,1.076-0.168c0.354-0.111,0.667-0.29,0.94-0.534c0.272-0.244,0.495-0.56,0.667-0.946 C185.05,8.458,185.136,7.99,185.136,7.441z M185.654,16.687c0-0.63-0.102-1.164-0.304-1.602c-0.202-0.437-0.465-0.793-0.789-1.068 c-0.323-0.274-0.677-0.473-1.062-0.595s-0.77-0.183-1.153-0.183h-2.215v6.744h2.306c0.445,0,0.86-0.066,1.245-0.199 c0.384-0.132,0.723-0.335,1.016-0.61c0.294-0.275,0.526-0.615,0.698-1.022C185.568,17.745,185.654,17.256,185.654,16.687z M203.536,5.61c-0.793-0.956-1.79-1.434-2.99-1.434c-0.346,0-0.682,0.056-1.007,0.168s-0.621,0.29-0.885,0.534 c-0.265,0.244-0.473,0.56-0.626,0.946c-0.152,0.387-0.229,0.844-0.229,1.373c0,0.916,0.274,1.623,0.824,2.121 c0.549,0.499,1.271,0.972,2.166,1.419c0.529,0.265,1.068,0.57,1.617,0.916c0.55,0.346,1.048,0.763,1.495,1.251 s0.813,1.068,1.099,1.739s0.428,1.465,0.428,2.38c0,1.058-0.168,1.994-0.504,2.807c-0.336,0.814-0.783,1.5-1.343,2.06 c-0.56,0.56-1.216,0.982-1.968,1.267c-0.753,0.285-1.547,0.427-2.38,0.427c-1.201,0-2.31-0.234-3.326-0.702 c-1.018-0.468-1.831-1.058-2.441-1.77l1.983-2.686c0.468,0.57,1.032,1.018,1.693,1.343c0.661,0.326,1.338,0.488,2.029,0.488 c0.773,0,1.414-0.264,1.923-0.793c0.508-0.529,0.763-1.271,0.763-2.228c0-0.936-0.306-1.678-0.916-2.228s-1.383-1.058-2.318-1.525 c-0.591-0.285-1.145-0.6-1.663-0.946c-0.52-0.346-0.977-0.757-1.373-1.236c-0.397-0.478-0.713-1.038-0.946-1.678 c-0.234-0.641-0.351-1.408-0.351-2.304c0-1.119,0.178-2.08,0.533-2.884c0.356-0.803,0.824-1.469,1.404-1.999 c0.579-0.529,1.235-0.92,1.968-1.175s1.475-0.381,2.228-0.381c1.099,0,2.08,0.178,2.945,0.534c0.864,0.356,1.591,0.88,2.182,1.572 L203.536,5.61z M221.646,22.79c-0.885,0.529-1.999,0.793-3.341,0.793c-1.221,0-2.325-0.285-3.312-0.854s-1.82-1.358-2.502-2.365 s-1.211-2.202-1.587-3.585c-0.377-1.383-0.564-2.899-0.564-4.547c0-1.647,0.188-3.168,0.564-4.562 c0.376-1.393,0.91-2.593,1.603-3.601c0.691-1.007,1.53-1.79,2.517-2.35c0.987-0.559,2.08-0.839,3.281-0.839 c1.24,0,2.329,0.229,3.265,0.687c0.936,0.458,1.698,1.114,2.288,1.968l-2.105,2.563c-0.834-1.2-1.912-1.8-3.234-1.8 c-0.732,0-1.373,0.209-1.922,0.625c-0.55,0.417-1.007,0.982-1.373,1.693c-0.366,0.712-0.642,1.552-0.824,2.518 c-0.184,0.966-0.274,1.999-0.274,3.097c0,1.079,0.091,2.101,0.274,3.067c0.183,0.966,0.458,1.806,0.824,2.518 s0.828,1.277,1.388,1.693c0.56,0.417,1.216,0.625,1.969,0.625c0.712,0,1.327-0.183,1.846-0.549s0.951-0.813,1.297-1.342l2.105,2.471 C223.259,21.569,222.531,22.261,221.646,22.79z M237.895,23.034l-3.356-9.215h-2.045v9.215h-3.539V1.43h6.164 c0.895,0,1.719,0.117,2.472,0.351c0.752,0.234,1.398,0.605,1.938,1.114c0.538,0.509,0.961,1.15,1.267,1.922 c0.305,0.773,0.457,1.699,0.457,2.777c0,0.834-0.106,1.572-0.32,2.212s-0.483,1.186-0.809,1.632 c-0.325,0.448-0.687,0.809-1.083,1.083s-0.789,0.463-1.175,0.564l3.875,9.948H237.895z M237.65,7.776 c0-0.651-0.092-1.19-0.274-1.617c-0.184-0.427-0.423-0.763-0.717-1.007c-0.296-0.244-0.626-0.417-0.992-0.519 c-0.366-0.102-0.732-0.152-1.099-0.152h-2.075v6.652h2.075c0.896,0,1.633-0.28,2.213-0.839C237.36,9.735,237.65,8.896,237.65,7.776z M247.141,23.034V1.43h3.661v21.604H247.141z M269.781,7.807c0,1.098-0.167,2.06-0.501,2.883c-0.335,0.824-0.775,1.511-1.323,2.06 c-0.547,0.549-1.176,0.956-1.885,1.22c-0.71,0.265-1.439,0.397-2.189,0.397h-2.554v8.666h-3.601V1.43h5.966 c0.689,0,1.399,0.102,2.13,0.305s1.385,0.554,1.963,1.053c0.579,0.499,1.056,1.155,1.432,1.968 C269.594,5.569,269.781,6.586,269.781,7.807z M266.333,7.853c0-1.154-0.274-1.995-0.823-2.521c-0.55-0.526-1.251-0.79-2.105-0.79 h-2.075v6.835h2.075c0.854,0,1.556-0.298,2.105-0.896C266.059,9.884,266.333,9.008,266.333,7.853z M280.583,4.542v18.492h-3.601 V4.542h-4.058V1.43h11.717v3.112H280.583z M289.311,23.034V1.43h3.661v21.604H289.311z M314.516,12.201 c0,1.708-0.179,3.26-0.534,4.653c-0.356,1.394-0.869,2.589-1.541,3.585c-0.671,0.997-1.49,1.77-2.456,2.319 c-0.967,0.549-2.05,0.824-3.25,0.824c-1.221,0-2.309-0.275-3.265-0.824c-0.957-0.549-1.771-1.322-2.441-2.319 c-0.672-0.997-1.186-2.192-1.541-3.585c-0.356-1.393-0.534-2.945-0.534-4.653c0-1.709,0.173-3.255,0.519-4.638 s0.854-2.573,1.526-3.57c0.671-0.997,1.489-1.765,2.456-2.304c0.966-0.539,2.06-0.809,3.28-0.809c1.2,0,2.283,0.27,3.25,0.809 c0.966,0.539,1.785,1.307,2.456,2.304c0.672,0.997,1.185,2.187,1.541,3.57C314.337,8.946,314.516,10.492,314.516,12.201z M310.731,12.201c0-1.099-0.086-2.131-0.259-3.097s-0.428-1.8-0.763-2.502c-0.336-0.702-0.753-1.256-1.252-1.663 c-0.498-0.407-1.073-0.61-1.724-0.61c-0.671,0-1.256,0.204-1.755,0.61c-0.498,0.407-0.915,0.961-1.251,1.663 c-0.335,0.702-0.585,1.536-0.747,2.502c-0.163,0.966-0.244,1.999-0.244,3.097s0.081,2.131,0.244,3.097 c0.162,0.966,0.412,1.806,0.747,2.518c0.336,0.712,0.753,1.271,1.251,1.678c0.499,0.407,1.084,0.61,1.755,0.61 s1.256-0.203,1.755-0.61c0.498-0.407,0.915-0.966,1.251-1.678s0.584-1.551,0.747-2.518C310.65,14.333,310.731,13.3,310.731,12.201z M329.925,23.034l-6.133-15.257H323.7l0.061,15.257h-3.295V1.43h4.181l6.072,15.349h0.091l-0.03-15.349h3.174v21.604H329.925z M4.108,52.496H1.76V29.402h6.785c1.13,0,2.18,0.109,3.147,0.326c0.967,0.218,1.805,0.571,2.512,1.06 c0.707,0.489,1.256,1.125,1.647,1.909c0.391,0.783,0.587,1.74,0.587,2.87c0,0.849-0.152,1.62-0.457,2.315 c-0.305,0.697-0.718,1.301-1.24,1.811c-0.522,0.512-1.142,0.92-1.859,1.224c-0.718,0.305-1.5,0.501-2.349,0.587l6.752,10.992h-2.871 L8.023,41.699H4.108V52.496z M4.108,39.677h4.078c1.892,0,3.349-0.343,4.371-1.027c1.022-0.686,1.533-1.713,1.533-3.083 c0-0.761-0.142-1.403-0.424-1.925c-0.283-0.521-0.674-0.945-1.174-1.271c-0.5-0.327-1.109-0.565-1.827-0.718 c-0.718-0.152-1.512-0.229-2.381-0.229H4.108V39.677z M66.878,50.409h12.361v2.087h-14.71V29.402h14.32v2.088H66.878v7.926h11.188 v2.088H66.878V50.409z M126.243,29.402h6.523c1.175,0,2.239,0.125,3.196,0.375c0.957,0.25,1.778,0.631,2.463,1.142 c0.686,0.511,1.212,1.153,1.582,1.924s0.555,1.68,0.555,2.724s-0.19,1.952-0.57,2.724c-0.381,0.771-0.914,1.414-1.599,1.924 c-0.686,0.512-1.512,0.898-2.479,1.158c-0.968,0.262-2.038,0.393-3.213,0.393h-4.109v10.73h-2.349V29.402z M128.592,39.775h3.979 c1.848,0,3.25-0.359,4.208-1.076c0.956-0.719,1.435-1.762,1.435-3.132c0-1.435-0.495-2.483-1.484-3.147 c-0.989-0.664-2.376-0.995-4.158-0.995h-3.979V39.775z M210.399,40.949c0,1.762-0.305,3.382-0.913,4.86 c-0.609,1.479-1.452,2.757-2.528,3.833s-2.349,1.92-3.816,2.527c-1.468,0.609-3.061,0.914-4.778,0.914 c-1.719,0-3.312-0.305-4.779-0.914c-1.468-0.607-2.739-1.451-3.816-2.527c-1.076-1.076-1.919-2.354-2.527-3.833 c-0.609-1.479-0.914-3.099-0.914-4.86s0.305-3.381,0.914-4.859c0.608-1.479,1.451-2.757,2.527-3.834 c1.077-1.076,2.349-1.918,3.816-2.527c1.468-0.608,3.061-0.913,4.779-0.913c1.718,0,3.311,0.305,4.778,0.913 c1.468,0.609,2.74,1.452,3.816,2.527c1.076,1.077,1.919,2.355,2.528,3.834C210.095,37.568,210.399,39.187,210.399,40.949z M207.92,40.965c0-1.347-0.217-2.627-0.652-3.843c-0.435-1.216-1.065-2.285-1.892-3.207c-0.826-0.923-1.832-1.656-3.018-2.199 c-1.185-0.543-2.517-0.814-3.995-0.814c-1.479,0-2.812,0.271-3.996,0.814c-1.186,0.542-2.191,1.276-3.018,2.199 c-0.826,0.922-1.457,1.991-1.892,3.207c-0.436,1.216-0.652,2.496-0.652,3.843s0.217,2.628,0.652,3.843 c0.435,1.217,1.065,2.279,1.892,3.191s1.832,1.639,3.018,2.182c1.185,0.543,2.517,0.814,3.996,0.814 c1.479,0,2.811-0.271,3.995-0.814c1.186-0.543,2.191-1.27,3.018-2.182s1.457-1.975,1.892-3.191 C207.703,43.593,207.92,42.312,207.92,40.965z M260.045,52.496h-2.349V29.402h6.784c1.131,0,2.18,0.109,3.148,0.326 c0.967,0.218,1.805,0.571,2.512,1.06c0.706,0.489,1.255,1.125,1.646,1.909s0.588,1.74,0.588,2.87c0,0.849-0.153,1.62-0.457,2.315 c-0.305,0.697-0.718,1.301-1.239,1.811c-0.522,0.512-1.142,0.92-1.859,1.224c-0.718,0.305-1.501,0.501-2.349,0.587l6.752,10.992 h-2.87l-6.394-10.797h-3.914V52.496z M260.045,39.677h4.077c1.892,0,3.349-0.343,4.371-1.027c1.021-0.686,1.533-1.713,1.533-3.083 c0-0.761-0.142-1.403-0.425-1.925c-0.282-0.521-0.674-0.945-1.174-1.271c-0.501-0.327-1.109-0.565-1.827-0.718 c-0.717-0.152-1.512-0.229-2.381-0.229h-4.175V39.677z M326.202,52.474h-2.349V31.468h-7.73V29.38h17.81v2.088h-7.73V52.474z"/>
</svg>